<svg width="21" height="21" viewBox="0 0 21 21" fill="none" xmlns="http://www.w3.org/2000/svg">
<path d="M9.42242 0C4.22984 0 0 4.22982 0 9.42243C0 14.615 4.22984 18.8531 9.42242 18.8531C11.6403 18.8531 13.6801 18.0758 15.2923 16.7853L19.2171 20.708C19.4151 20.8979 19.6797 21.0027 19.954 20.9998C20.2284 20.997 20.4907 20.8869 20.6849 20.6931C20.879 20.4992 20.9895 20.237 20.9927 19.9627C20.9959 19.6883 20.8915 19.4237 20.7019 19.2253L16.7771 15.3005C18.0687 13.6859 18.8469 11.6429 18.8469 9.42243C18.8469 4.22982 14.615 0 9.42242 0V0ZM9.42242 2.09436C13.4832 2.09436 16.7505 5.36171 16.7505 9.42243C16.7505 13.4832 13.4832 16.7587 9.42242 16.7587C5.36169 16.7587 2.09433 13.4832 2.09433 9.42243C2.09433 5.36171 5.36169 2.09436 9.42242 2.09436Z" fill="#0D0E0C"/>
</svg>
