<svg width="11" height="20" viewBox="0 0 11 20" fill="none" xmlns="http://www.w3.org/2000/svg">
<path d="M3.01571 11.2916C2.93721 11.2916 1.29047 11.2921 0.530971 11.2914C0.139973 11.2911 0.000473346 11.1506 0.000473346 10.7571C-2.66522e-05 9.74637 -0.000276651 8.73562 0.000473346 7.72488C0.000723345 7.33638 0.148223 7.18813 0.534221 7.18788C1.29372 7.18738 2.93146 7.18763 3.01571 7.18763C3.01571 7.11838 3.01546 5.65913 3.01571 4.98714C3.01621 3.99364 3.19346 3.04264 3.69821 2.1719C4.21496 1.28065 4.96695 0.670152 5.9307 0.317153C6.54795 0.0909038 7.1887 0.00065426 7.84369 0.000154262C8.66319 -0.000345737 9.48269 0.000404253 10.3024 0.00190425C10.6547 0.00240425 10.8109 0.158154 10.8117 0.512902C10.8132 1.46365 10.8132 2.4144 10.8117 3.36489C10.8112 3.72339 10.6614 3.86739 10.3012 3.87139C9.62944 3.87864 8.95719 3.87414 8.28619 3.90114C7.60844 3.90114 7.25195 4.23214 7.25195 4.93364C7.2357 5.67563 7.2452 6.41838 7.2452 7.18738C7.3087 7.18738 9.23744 7.18713 10.1389 7.18738C10.5484 7.18738 10.6884 7.32813 10.6884 7.73988C10.6884 8.74512 10.6882 9.75062 10.6874 10.7559C10.6872 11.1616 10.5557 11.2911 10.1437 11.2914C9.24219 11.2919 7.32094 11.2916 7.23695 11.2916V19.4278C7.23695 19.8616 7.10045 19.9998 6.67245 19.9998C5.62895 19.9998 4.58521 20.0001 3.54171 19.9998C3.16346 19.9998 3.01596 19.8528 3.01596 19.4746C3.01571 16.8248 3.01571 11.3846 3.01571 11.2916Z" fill="#3D6AD6"/>
</svg>
