<svg width="340" height="51" viewBox="0 0 340 51" fill="none" xmlns="http://www.w3.org/2000/svg">
<path d="M11.291 26.9642L11.9175 22.9553H7.99995V20.3538C7.99995 19.257 8.5472 18.1879 10.3018 18.1879H12.0828V14.7747C12.0828 14.7747 10.4666 14.5039 8.92129 14.5039C5.69505 14.5039 3.58623 16.424 3.58623 19.8999V22.9553H0V26.9642H3.58623V36.6556H7.99995V26.9642H11.291Z" fill="#667966"/>
<path d="M183.101 18.0487C182.739 16.6534 181.673 15.5545 180.319 15.1816C177.865 14.5039 168.026 14.5039 168.026 14.5039C168.026 14.5039 158.186 14.5039 155.732 15.1816C154.379 15.5545 153.312 16.6534 152.951 18.0487C152.293 20.5777 152.293 25.8544 152.293 25.8544C152.293 25.8544 152.293 31.131 152.951 33.6601C153.312 35.0554 154.379 36.1085 155.732 36.4814C158.186 37.1591 168.026 37.1591 168.026 37.1591C168.026 37.1591 177.865 37.1591 180.319 36.4814C181.673 36.1085 182.739 35.0554 183.101 33.6601C183.759 31.131 183.759 25.8544 183.759 25.8544C183.759 25.8544 183.759 20.5777 183.101 18.0487V18.0487ZM164.808 30.6452V21.0636L173.032 25.8545L164.808 30.6452V30.6452Z" fill="#667966"/>
<rect x="61" width="51" height="51" rx="25.5" fill="#E1EEEA"/>
<path d="M95.3919 20.6579C95.406 20.8726 95.406 21.0873 95.406 21.302C95.406 27.8493 90.8379 35.3934 82.4888 35.3934C79.9166 35.3934 77.5272 34.5807 75.5172 33.1701C75.8827 33.216 76.234 33.2314 76.6135 33.2314C78.7359 33.2314 80.6897 32.4494 82.2499 31.1154C80.254 31.0694 78.5813 29.6434 78.005 27.6807C78.2862 27.7266 78.5673 27.7573 78.8625 27.7573C79.2701 27.7573 79.6777 27.696 80.0572 27.5887C77.977 27.1286 76.4167 25.1353 76.4167 22.728V22.6667C77.0211 23.0347 77.7239 23.2647 78.4688 23.2953C77.246 22.4059 76.4449 20.8879 76.4449 19.1706C76.4449 18.2506 76.6697 17.4073 77.0633 16.6713C79.2981 19.6766 82.6575 21.6392 86.4243 21.854C86.3541 21.4859 86.3119 21.1026 86.3119 20.7193C86.3119 17.9899 88.3359 15.7666 90.8519 15.7666C92.159 15.7666 93.3397 16.3646 94.169 17.3306C95.195 17.116 96.1789 16.7019 97.0504 16.1346C96.713 17.2846 95.9962 18.2506 95.0545 18.8639C95.9681 18.7567 96.8536 18.4806 97.6688 18.0973C97.0505 19.0786 96.2774 19.9526 95.3919 20.6579V20.6579Z" fill="#2B6956"/>
<path d="M257.801 14H237.083C236.133 14 235.362 14.7496 235.362 15.6697V35.4889C235.362 36.4091 236.133 37.1586 237.083 37.1586H257.801C258.751 37.1586 259.528 36.4091 259.528 35.4889V15.6697C259.528 14.7496 258.751 14 257.801 14ZM242.666 33.8502H239.084V22.7982H242.671V33.8502H242.666ZM240.875 21.2888C239.726 21.2888 238.798 20.3945 238.798 19.2986C238.798 18.2027 239.726 17.3084 240.875 17.3084C242.018 17.3084 242.952 18.2027 242.952 19.2986C242.952 20.3996 242.024 21.2888 240.875 21.2888V21.2888ZM256.092 33.8502H252.51V28.4741C252.51 27.1921 252.483 25.5431 250.649 25.5431C248.783 25.5431 248.497 26.9388 248.497 28.3811V33.8502H244.915V22.7982H248.351V24.3077H248.4C248.88 23.4392 250.05 22.5242 251.792 22.5242C255.417 22.5242 256.092 24.8142 256.092 27.7918V33.8502V33.8502Z" fill="#667966"/>
<path d="M328.251 19.9003C325.108 19.9003 322.573 22.4361 322.573 25.5798C322.573 28.7235 325.108 31.2592 328.251 31.2592C331.394 31.2592 333.929 28.7235 333.929 25.5798C333.929 22.4361 331.394 19.9003 328.251 19.9003ZM328.251 29.2721C326.22 29.2721 324.559 27.6163 324.559 25.5798C324.559 23.5433 326.215 21.8874 328.251 21.8874C330.287 21.8874 331.942 23.5433 331.942 25.5798C331.942 27.6163 330.282 29.2721 328.251 29.2721V29.2721ZM335.486 19.668C335.486 20.4045 334.893 20.9927 334.161 20.9927C333.425 20.9927 332.837 20.3996 332.837 19.668C332.837 18.9365 333.43 18.3433 334.161 18.3433C334.893 18.3433 335.486 18.9365 335.486 19.668ZM339.246 21.0125C339.162 19.238 338.757 17.6661 337.457 16.3711C336.163 15.076 334.591 14.6707 332.817 14.5818C330.988 14.478 325.508 14.478 323.68 14.5818C321.91 14.6658 320.339 15.0711 319.039 16.3662C317.739 17.6612 317.339 19.233 317.25 21.0076C317.146 22.8364 317.146 28.3181 317.25 30.147C317.334 31.9215 317.739 33.4934 319.039 34.7884C320.339 36.0835 321.905 36.4888 323.68 36.5778C325.508 36.6816 330.988 36.6816 332.817 36.5778C334.591 36.4937 336.163 36.0884 337.457 34.7884C338.752 33.4934 339.157 31.9215 339.246 30.147C339.35 28.3181 339.35 22.8414 339.246 21.0125V21.0125ZM336.884 32.1094C336.499 33.0782 335.752 33.8246 334.779 34.2151C333.321 34.7934 329.862 34.6599 328.251 34.6599C326.64 34.6599 323.175 34.7884 321.723 34.2151C320.754 33.8295 320.008 33.0831 319.617 32.1094C319.039 30.6512 319.173 27.1912 319.173 25.5798C319.173 23.9684 319.044 20.5034 319.617 19.0502C320.003 18.0813 320.749 17.335 321.723 16.9445C323.18 16.3662 326.64 16.4996 328.251 16.4996C329.862 16.4996 333.326 16.3711 334.779 16.9445C335.747 17.33 336.494 18.0764 336.884 19.0502C337.462 20.5083 337.329 23.9684 337.329 25.5798C337.329 27.1912 337.462 30.6561 336.884 32.1094Z" fill="#667966"/>
</svg>
