<svg width="20" height="16" viewBox="0 0 20 16" fill="none" xmlns="http://www.w3.org/2000/svg">
<path d="M19.6923 1.89416C18.96 2.21539 18.1797 2.42831 17.3662 2.5317C18.2031 2.032 18.8419 1.24677 19.1422 0.300308C18.3619 0.765539 17.5003 1.09416 16.5822 1.27754C15.8413 0.488616 14.7853 0 13.6333 0C11.3982 0 9.59878 1.81416 9.59878 4.03816C9.59878 4.35816 9.62586 4.66585 9.69232 4.95878C6.33601 4.79508 3.36616 3.18647 1.37108 0.736001C-0.0556309 3.30659 1.53846 5.41416 2.6117 6.1317C1.96308 6.11939 1.32677 5.93109 0.787693 5.63447C0.787693 7.63841 2.18708 9.27017 4.02216 9.64555C3.62093 9.77872 2.74437 9.85109 2.19939 9.70955C2.72247 11.3083 4.20677 12.4837 5.9717 12.5219C4.59816 13.5963 2.57403 14.4721 0 14.1883C1.78831 15.3416 3.9077 16 6.19324 16C13.6222 16 17.6837 9.84617 17.6837 4.51201C17.6837 4.33355 17.6776 4.16124 17.6689 3.99016C18.4702 3.42154 19.1434 2.71139 19.6923 1.89416V1.89416Z" fill="#1DA1F3"/>
</svg>
